<svg xmlns="http://www.w3.org/2000/svg" version="1.1" xmlns:xlink="http://www.w3.org/1999/xlink" xmlns:svgjs="http://svgjs.dev/svgjs" width="500" height="500"><svg xmlns="http://www.w3.org/2000/svg" viewBox="0 0 500 500">
  <path d="M 478.613 270.226 C 478.613 300.611 471.883 332.255 460.781 358.503 C 449.647 384.828 432.053 410.717 412.195 430.577 L 373.737 392.119 C 389.993 375.862 401.628 358.746 410.691 337.318 C 419.788 315.812 424.226 294.953 424.226 270.226 C 424.226 245.5 419.788 224.64 410.691 203.136 C 407.712 196.093 404.455 189.515 400.848 183.281 L 440.114 144.015 C 448.237 156.107 455.294 168.975 460.781 181.949 C 471.883 208.197 478.613 239.841 478.613 270.226 Z M 318.935 111.379 C 297.43 102.283 276.57 97.844 251.844 97.844 C 227.117 97.844 206.258 102.283 184.752 111.379 C 163.325 120.442 146.208 132.077 129.951 148.333 C 113.695 164.59 102.06 181.707 92.997 203.136 C 83.901 224.64 79.461 245.5 79.461 270.226 C 79.461 294.953 83.901 315.812 92.997 337.318 C 102.06 358.746 113.695 375.862 129.951 392.119 L 91.494 430.577 C 71.634 410.717 54.041 384.828 42.907 358.503 C 31.805 332.255 25.075 300.611 25.075 270.226 C 25.075 239.841 31.805 208.197 42.907 181.949 C 54.041 155.624 71.634 129.736 91.494 109.876 C 111.354 90.017 137.242 72.423 163.567 61.289 C 189.815 50.187 221.459 43.457 251.844 43.457 C 282.229 43.457 313.873 50.187 340.121 61.289 C 361.381 70.281 382.358 83.486 400.103 98.696 C 392.872 105.927 378.686 120.112 361.598 137.2 C 348.846 126.537 335.121 118.224 318.935 111.379 Z" style=""></path>
  <path d="M 373.737 148.333 C 357.48 132.077 340.364 120.442 318.935 111.379 C 297.43 102.283 276.57 97.844 251.844 97.844 C 227.117 97.844 206.258 102.283 184.752 111.379 C 163.325 120.442 146.208 132.077 129.951 148.333 C 113.695 164.59 102.06 181.707 92.997 203.136 C 83.901 224.64 79.461 245.5 79.461 270.226 C 79.461 294.953 83.901 315.812 92.997 337.318 C 102.06 358.746 113.695 375.862 129.951 392.119 L 91.494 430.577 C 71.634 410.717 54.041 384.828 42.907 358.503 C 31.805 332.255 25.075 300.611 25.075 270.226 C 25.075 239.841 31.805 208.197 42.907 181.949 C 54.041 155.624 71.634 129.736 91.494 109.876 C 111.354 90.017 137.242 72.423 163.567 61.289 C 189.815 50.187 221.459 43.457 251.844 43.457 C 282.229 43.457 313.873 50.187 340.121 61.289 C 366.446 72.423 392.335 90.017 412.195 109.876 C 415.791 113.473 419.314 117.269 422.739 121.229 L 384.242 159.725 C 380.969 155.854 377.474 152.071 373.737 148.333 Z" style="fill: rgb(3, 195, 213);"></path>
  <path d="M 225.031 234.985 C 225.029 234.985 225.026 234.985 225.024 234.985 L 224.054 234.985 L 224.054 234.965 C 211.084 234.453 200.727 223.776 200.727 210.681 C 200.727 197.585 211.084 186.908 224.054 186.396 L 224.054 186.376 L 430.484 186.376 L 430.484 186.397 C 430.82 186.382 431.16 186.376 431.501 186.376 C 444.923 186.376 455.804 197.258 455.804 210.681 C 455.804 224.103 444.923 234.985 431.501 234.985 C 431.16 234.985 430.82 234.978 430.484 234.964 L 430.484 234.985 C 430.481 234.985 225.033 234.985 225.031 234.985 Z" style="stroke: rgb(0, 0, 0); transform-box: fill-box; transform-origin: 50% 50%;" transform="matrix(-0.707107, 0.707107, -0.707107, -0.707107, -0.000084, -0.000011)"></path>
</svg><style>@media (prefers-color-scheme: light) { :root { filter: none; } }
@media (prefers-color-scheme: dark) { :root { filter: none; } }
</style></svg>